<?xml version="1.0" encoding="UTF-8" standalone="no"?>
<svg
   id="master-artboard"
   viewBox="0 0 800 800"
   version="1.1"
   x="0px"
   y="0px"
   style="enable-background:new 0 0 336 235.2;"
   width="800px"
   height="800px"
   sodipodi:docname="Untitled.svg"
   inkscape:version="1.2.1 (9c6d41e410, 2022-07-14)"
   xmlns:inkscape="http://www.inkscape.org/namespaces/inkscape"
   xmlns:sodipodi="http://sodipodi.sourceforge.net/DTD/sodipodi-0.dtd"
   xmlns="http://www.w3.org/2000/svg"
   xmlns:svg="http://www.w3.org/2000/svg">
  <sodipodi:namedview
     id="namedview208"
     pagecolor="#ffffff"
     bordercolor="#999999"
     borderopacity="1"
     inkscape:showpageshadow="0"
     inkscape:pageopacity="0"
     inkscape:pagecheckerboard="0"
     inkscape:deskcolor="#d1d1d1"
     showgrid="false"
     inkscape:zoom="1.09625"
     inkscape:cx="399.5439"
     inkscape:cy="400.4561"
     inkscape:window-width="1920"
     inkscape:window-height="1057"
     inkscape:window-x="-8"
     inkscape:window-y="-8"
     inkscape:window-maximized="1"
     inkscape:current-layer="master-artboard" />
  <defs
     id="defs196">
    <radialGradient
       id="gradient-0"
       gradientUnits="objectBoundingBox"
       cx="0.5"
       cy="0.5"
       r="0.5">
      <stop
         offset="0"
         style="stop-color: #ffffff"
         id="stop191" />
      <stop
         offset="1"
         style="stop-color: #cccccc"
         id="stop193" />
    </radialGradient>
  </defs>
  <rect
     id="ee-background"
     x="0"
     y="0"
     width="800"
     height="800"
     style="fill: white; fill-opacity: 0; pointer-events: none;" />
  <g
     transform="matrix(7.721470355987548, 0, 0, 7.721470355987548, -4636.100229998439, -337.2899549828649)"
     id="g203">
    <g
       id="g-1"
       transform="matrix(1, 0, 0, 1, 0, 0)">
      <g
         id="g-2">
        <path
           class="st0"
           d="M652,46c27.6,0,50,22.4,50,50s-22.4,50-50,50s-50-22.4-50-50S624.4,46,652,46z"
           style="fill: rgb(3, 4, 20);"
           id="path199" />
      </g>
    </g>
  </g>
  <path
     d="m 117.5777,591.42704 c -11.71245,0 -20.975921,-1.65037 -27.790276,-4.95111 v -27.1514 c 8.943848,2.44899 18.207316,3.67336 27.790276,3.67336 12.35121,0 21.72118,-3.72649 28.10966,-11.17996 6.49522,-7.55973 9.74259,-18.36706 9.74259,-32.42201 V 245.805 h 31.78326 v 271.03543 c 0,23.63791 -6.01586,42.00497 -18.04781,55.10143 -11.92521,12.9902 -29.12127,19.48518 -51.5877,19.48518 z M 497.36327,382.20127 c 0,43.7616 -11.07346,78.20685 -33.22063,103.33526 -22.14693,25.02192 -52.97194,37.53275 -92.47456,37.53275 -40.2481,0 -71.339,-12.29784 -93.27317,-36.894 -21.93417,-24.59591 -32.90114,-59.36042 -32.90114,-104.29351 0,-44.61359 11.02009,-79.1651 33.06077,-103.65476 21.93417,-24.48942 53.13156,-36.73412 93.59267,-36.73412 39.28986,0 69.955,12.4577 91.99543,37.37312 22.14717,25.02191 33.22063,59.46692 33.22063,103.33526 m -218.16974,0 c 0,37.05362 7.93235,65.16352 23.7973,84.32921 15.75844,19.16568 38.65086,28.74864 68.67725,28.74864 30.34565,0 53.23807,-9.52959 68.67726,-28.58902 15.54545,-19.16568 23.31817,-47.32871 23.31817,-84.48883 0,-36.84087 -7.71935,-64.73777 -23.15854,-83.69046 -15.43895,-19.05918 -38.22487,-28.58877 -68.35776,-28.58877 -30.34565,0 -53.39794,9.58272 -69.15638,28.7484 -15.86495,19.16593 -23.7973,47.00946 -23.7973,83.53083 z M 710.93552,519.39592 H 558.40818 V 245.805 h 152.52734 v 28.26952 H 590.19144 v 88.16244 h 113.39711 v 27.95003 H 590.19144 v 100.77978 h 120.74408 z"
     style="color:#333333;white-space:pre;fill:#ffffff;fill-opacity:1;stroke:#ffffff;stroke-width:15.9714;stroke-opacity:1;paint-order:stroke"
     id="path205" />
</svg>
